<svg width="64" height="64" viewBox="0 0 64 64" fill="none" xmlns="http://www.w3.org/2000/svg">
<path d="M34.8281 6C34.078 5.25012 33.0607 4.82886 32.0001 4.82886C30.9394 4.82886 29.9222 5.25012 29.1721 6L2.58409 32.584C2.39813 32.77 2.25063 32.9907 2.14999 33.2337C2.04936 33.4766 1.99756 33.737 1.99756 34C1.99756 34.263 2.04936 34.5234 2.14999 34.7663C2.25063 35.0093 2.39813 35.2301 2.58409 35.416C2.95963 35.7916 3.46898 36.0025 4.00008 36.0025C4.26306 36.0025 4.52346 35.9507 4.76642 35.8501C5.00938 35.7495 5.23013 35.602 5.41608 35.416L32.0001 8.828L58.5841 35.416C58.9596 35.7916 59.469 36.0025 60.0001 36.0025C60.5312 36.0025 61.0405 35.7916 61.4161 35.416C61.7916 35.0405 62.0026 34.5311 62.0026 34C62.0026 33.4689 61.7916 32.9595 61.4161 32.584L52.0001 23.172V10C52.0001 9.46957 51.7894 8.96086 51.4143 8.58579C51.0392 8.21072 50.5305 8 50.0001 8H46.0001C45.4697 8 44.9609 8.21072 44.5859 8.58579C44.2108 8.96086 44.0001 9.46957 44.0001 10V15.172L34.8281 6Z" fill="#801515"/>
<path d="M32 13.1721L56 37.1721V54.0001C56 55.5914 55.3679 57.1175 54.2426 58.2428C53.1174 59.368 51.5913 60.0001 50 60.0001H14C12.4087 60.0001 10.8826 59.368 9.75736 58.2428C8.63214 57.1175 8 55.5914 8 54.0001V37.1721L32 13.1721Z" fill="#801515"/>
</svg>
