<svg width="64" height="64" viewBox="0 0 64 64" fill="none" xmlns="http://www.w3.org/2000/svg">
<path fill-rule="evenodd" clip-rule="evenodd" d="M11.1253 8.45859C8 11.5813 8 16.6106 8 26.6666V37.3333C8 47.3893 8 52.4186 11.1253 55.5413C14.248 58.6666 19.2773 58.6666 29.3333 58.6666H34.6667C44.7227 58.6666 49.752 58.6666 52.8747 55.5413C56 52.4186 56 47.3893 56 37.3333V26.6666C56 16.6106 56 11.5813 52.8747 8.45859C49.752 5.33325 44.7227 5.33325 34.6667 5.33325H29.3333C19.2773 5.33325 14.248 5.33325 11.1253 8.45859ZM21.3333 24.6666C20.8029 24.6666 20.2942 24.8773 19.9191 25.2524C19.544 25.6274 19.3333 26.1362 19.3333 26.6666C19.3333 27.197 19.544 27.7057 19.9191 28.0808C20.2942 28.4559 20.8029 28.6666 21.3333 28.6666H42.6667C43.1971 28.6666 43.7058 28.4559 44.0809 28.0808C44.456 27.7057 44.6667 27.197 44.6667 26.6666C44.6667 26.1362 44.456 25.6274 44.0809 25.2524C43.7058 24.8773 43.1971 24.6666 42.6667 24.6666H21.3333ZM21.3333 35.3333C20.8029 35.3333 20.2942 35.544 19.9191 35.919C19.544 36.2941 19.3333 36.8028 19.3333 37.3333C19.3333 37.8637 19.544 38.3724 19.9191 38.7475C20.2942 39.1225 20.8029 39.3333 21.3333 39.3333H34.6667C35.1971 39.3333 35.7058 39.1225 36.0809 38.7475C36.456 38.3724 36.6667 37.8637 36.6667 37.3333C36.6667 36.8028 36.456 36.2941 36.0809 35.919C35.7058 35.544 35.1971 35.3333 34.6667 35.3333H21.3333Z" fill="#0FA958"/>
</svg>
