<svg width="64" height="64" viewBox="0 0 64 64" fill="none" xmlns="http://www.w3.org/2000/svg">
<path d="M8.53345 4.2666H29.8668V8.53327H8.53345V4.2666ZM34.1334 36.2666C34.1334 34.5692 34.8077 32.9414 36.008 31.7411C37.2082 30.5409 38.8361 29.8666 40.5334 29.8666C42.2308 29.8666 43.8587 30.5409 45.0589 31.7411C46.2592 32.9414 46.9334 34.5692 46.9334 36.2666C46.9334 37.964 46.2592 39.5919 45.0589 40.7921C43.8587 41.9923 42.2308 42.6666 40.5334 42.6666C38.8361 42.6666 37.2082 41.9923 36.008 40.7921C34.8077 39.5919 34.1334 37.964 34.1334 36.2666Z" fill="#222222"/>
<path fill-rule="evenodd" clip-rule="evenodd" d="M0 53.3334C0 55.0308 0.674284 56.6586 1.87452 57.8589C3.07475 59.0591 4.70261 59.7334 6.4 59.7334H57.6C59.2974 59.7334 60.9253 59.0591 62.1255 57.8589C63.3257 56.6586 64 55.0308 64 53.3334V19.2C64 17.5027 63.3257 15.8748 62.1255 14.6746C60.9253 13.4743 59.2974 12.8 57.6 12.8H6.4C4.70261 12.8 3.07475 13.4743 1.87452 14.6746C0.674284 15.8748 0 17.5027 0 19.2L0 53.3334ZM40.5333 25.6C37.7044 25.6 34.9913 26.7239 32.9909 28.7242C30.9905 30.7246 29.8667 33.4377 29.8667 36.2667C29.8667 39.0957 30.9905 41.8088 32.9909 43.8092C34.9913 45.8096 37.7044 46.9334 40.5333 46.9334C43.3623 46.9334 46.0754 45.8096 48.0758 43.8092C50.0762 41.8088 51.2 39.0957 51.2 36.2667C51.2 33.4377 50.0762 30.7246 48.0758 28.7242C46.0754 26.7239 43.3623 25.6 40.5333 25.6Z" fill="#222222"/>
</svg>
