<svg width="64" height="64" viewBox="0 0 64 64" fill="none" xmlns="http://www.w3.org/2000/svg">
<path d="M57.3334 10.6667H50.2223V16C50.2223 16.5137 50.1211 17.0222 49.9246 17.4968C49.728 17.9713 49.4399 18.4024 49.0768 18.7656C48.7136 19.1288 48.2824 19.4169 47.8079 19.6134C47.3334 19.81 46.8248 19.9112 46.3112 19.9112C45.7976 19.9112 45.289 19.81 44.8145 19.6134C44.34 19.4169 43.9088 19.1288 43.5456 18.7656C43.1824 18.4024 42.8943 17.9713 42.6978 17.4968C42.5012 17.0222 42.4001 16.5137 42.4001 16V10.6667H21.689V16C21.689 17.0373 21.2769 18.0321 20.5434 18.7656C19.81 19.4991 18.8151 19.9112 17.7779 19.9112C16.7406 19.9112 15.7458 19.4991 15.0123 18.7656C14.2788 18.0321 13.8667 17.0373 13.8667 16V10.6667H6.75563C6.33256 10.6619 5.91282 10.742 5.52124 10.9022C5.12966 11.0624 4.77418 11.2996 4.47583 11.5996C4.17749 11.8996 3.94234 12.2563 3.78428 12.6488C3.62622 13.0413 3.54847 13.4615 3.55563 13.8845V53.6712C3.54857 54.0867 3.62344 54.4996 3.77598 54.8863C3.92852 55.2729 4.15573 55.6257 4.44463 55.9245C4.73354 56.2233 5.07848 56.4623 5.45975 56.6278C5.84103 56.7932 6.25117 56.882 6.66674 56.8889H57.3334C57.749 56.882 58.1591 56.7932 58.5404 56.6278C58.9217 56.4623 59.2666 56.2233 59.5555 55.9245C59.8444 55.6257 60.0716 55.2729 60.2242 54.8863C60.3767 54.4996 60.4516 54.0867 60.4445 53.6712V13.8845C60.4516 13.4689 60.3767 13.056 60.2242 12.6694C60.0716 12.2827 59.8444 11.9299 59.5555 11.6311C59.2666 11.3323 58.9217 11.0934 58.5404 10.9279C58.1591 10.7624 57.749 10.6737 57.3334 10.6667ZM17.7779 46.2223H14.2223V42.6667H17.7779V46.2223ZM17.7779 37.3334H14.2223V33.7778H17.7779V37.3334ZM17.7779 28.4445H14.2223V24.8889H17.7779V28.4445ZM28.4445 46.2223H24.889V42.6667H28.4445V46.2223ZM28.4445 37.3334H24.889V33.7778H28.4445V37.3334ZM28.4445 28.4445H24.889V24.8889H28.4445V28.4445ZM39.1112 46.2223H35.5556V42.6667H39.1112V46.2223ZM39.1112 37.3334H35.5556V33.7778H39.1112V37.3334ZM39.1112 28.4445H35.5556V24.8889H39.1112V28.4445ZM49.7779 46.2223H46.2223V42.6667H49.7779V46.2223ZM49.7779 37.3334H46.2223V33.7778H49.7779V37.3334ZM49.7779 28.4445H46.2223V24.8889H49.7779V28.4445Z" fill="#1EABE7"/>
<path d="M17.7778 17.7779C18.2493 17.7779 18.7015 17.5906 19.0349 17.2572C19.3683 16.9238 19.5556 16.4716 19.5556 16.0001V5.33344C19.5556 4.86195 19.3683 4.40976 19.0349 4.07636C18.7015 3.74297 18.2493 3.55566 17.7778 3.55566C17.3063 3.55566 16.8541 3.74297 16.5207 4.07636C16.1873 4.40976 16 4.86195 16 5.33344V16.0001C16 16.4716 16.1873 16.9238 16.5207 17.2572C16.8541 17.5906 17.3063 17.7779 17.7778 17.7779Z" fill="#1EABE7"/>
<path d="M46.2221 17.7779C46.6936 17.7779 47.1458 17.5906 47.4792 17.2572C47.8126 16.9238 47.9999 16.4716 47.9999 16.0001V5.33344C47.9999 4.86195 47.8126 4.40976 47.4792 4.07636C47.1458 3.74297 46.6936 3.55566 46.2221 3.55566C45.7506 3.55566 45.2984 3.74297 44.965 4.07636C44.6316 4.40976 44.4443 4.86195 44.4443 5.33344V16.0001C44.4443 16.4716 44.6316 16.9238 44.965 17.2572C45.2984 17.5906 45.7506 17.7779 46.2221 17.7779Z" fill="#1EABE7"/>
</svg>
