<svg width="64" height="64" viewBox="0 0 64 64" fill="none" xmlns="http://www.w3.org/2000/svg">
<path d="M58.6667 6.00011H50V2.00011C50.0004 1.46968 49.79 0.960832 49.4152 0.585509C49.0403 0.210186 48.5318 -0.000866606 48.0013 -0.00122023C47.4709 -0.00157385 46.9621 0.208801 46.5867 0.583623C46.2114 0.958446 46.0004 1.46701 46 1.99745V6.00011H34V2.00011C34.0002 1.73747 33.9486 1.47736 33.8483 1.23464C33.7479 0.991927 33.6008 0.77135 33.4152 0.585509C33.2296 0.399668 33.0092 0.252202 32.7666 0.151531C32.524 0.0508598 32.264 -0.00104516 32.0013 -0.00122026C31.4709 -0.00157388 30.9621 0.208801 30.5867 0.583623C30.2114 0.958446 30.0004 1.46701 30 1.99745V6.00011H18V2.00011C18.0002 1.73747 17.9486 1.47736 17.8483 1.23464C17.7479 0.991927 17.6007 0.77135 17.4152 0.585509C17.2296 0.399668 17.0092 0.252202 16.7666 0.151531C16.524 0.0508598 16.264 -0.00104516 16.0013 -0.00122026C15.4709 -0.00157388 14.9621 0.208801 14.5867 0.583623C14.2114 0.958446 14.0004 1.46701 14 1.99745V6.00011H5.33333C3.91931 6.00011 2.56316 6.56165 1.56304 7.56127C0.562922 8.56088 0.000707013 9.91675 0 11.3308V58.6641C0 60.0786 0.561903 61.4352 1.5621 62.4354C2.56229 63.4355 3.91885 63.9974 5.33333 63.9974H58.6667C60.0812 63.9974 61.4377 63.4355 62.4379 62.4354C63.4381 61.4352 64 60.0786 64 58.6641V11.3308C63.9993 9.91675 63.4371 8.56088 62.437 7.56127C61.4368 6.56165 60.0807 6.00011 58.6667 6.00011ZM60 58.6668C60 59.0199 59.8599 59.3587 59.6104 59.6086C59.3609 59.8586 59.0225 59.9994 58.6693 60.0001H5.33333C4.97971 60.0001 4.64057 59.8596 4.39052 59.6096C4.14048 59.3595 4 59.0204 4 58.6668V11.3334C4.00071 10.9803 4.14149 10.6418 4.39147 10.3924C4.64144 10.1429 4.98017 10.0028 5.33333 10.0028H14V14.0028C13.9996 14.5332 14.21 15.0421 14.5848 15.4174C14.9597 15.7927 15.4682 16.0038 15.9987 16.0041C16.5291 16.0045 17.0379 15.7941 17.4133 15.4193C17.7886 15.0444 17.9996 14.5359 18 14.0054V10.0028H30V14.0028C29.9996 14.5332 30.21 15.0421 30.5848 15.4174C30.9597 15.7927 31.4682 16.0038 31.9987 16.0041C32.5291 16.0045 33.0379 15.7941 33.4133 15.4193C33.7886 15.0444 33.9996 14.5359 34 14.0054V10.0028H46V14.0028C45.9996 14.5332 46.21 15.0421 46.5848 15.4174C46.9597 15.7927 47.4682 16.0038 47.9987 16.0041C48.5291 16.0045 49.0379 15.7941 49.4133 15.4193C49.7886 15.0444 49.9996 14.5359 50 14.0054V10.0028H58.6667C59.0194 10.0035 59.3574 10.1439 59.6068 10.3933C59.8562 10.6427 59.9966 10.9807 59.9973 11.3334L60 58.6668Z" fill="#18A8E6"/>
<path d="M14 24H22V30H14V24ZM14 34H22V40H14V34ZM14 44H22V50H14V44ZM28 44H36V50H28V44ZM28 34H36V40H28V34ZM28 24H36V30H28V24ZM42 44H50V50H42V44ZM42 34H50V40H42V34ZM42 24H50V30H42V24Z" fill="#18A8E6"/>
</svg>
