<svg width="64" height="64" viewBox="0 0 64 64" fill="none" xmlns="http://www.w3.org/2000/svg">
<mask id="mask0_79_5842" style="mask-type:luminance" maskUnits="userSpaceOnUse" x="4" y="5" width="56" height="54">
<path d="M53.3334 21.3333H10.6667C8.45761 21.3333 6.66675 23.1241 6.66675 25.3333V51.9999C6.66675 54.2091 8.45761 55.9999 10.6667 55.9999H53.3334C55.5426 55.9999 57.3334 54.2091 57.3334 51.9999V25.3333C57.3334 23.1241 55.5426 21.3333 53.3334 21.3333Z" fill="white" stroke="white" stroke-width="5.33333" stroke-linejoin="round"/>
<path d="M25.3334 10.6666H38.6667V5.33325H25.3334V10.6666ZM40.0001 11.9999V21.3333H45.3334V11.9999H40.0001ZM24.0001 21.3333V11.9999H18.6667V21.3333H24.0001ZM38.6667 10.6666C39.0204 10.6666 39.3595 10.8071 39.6096 11.0571C39.8596 11.3072 40.0001 11.6463 40.0001 11.9999H45.3334C45.3334 10.2318 44.631 8.53612 43.3808 7.28587C42.1306 6.03563 40.4349 5.33325 38.6667 5.33325V10.6666ZM25.3334 5.33325C23.5653 5.33325 21.8696 6.03563 20.6194 7.28587C19.3691 8.53612 18.6667 10.2318 18.6667 11.9999H24.0001C24.0001 11.6463 24.1406 11.3072 24.3906 11.0571C24.6407 10.8071 24.9798 10.6666 25.3334 10.6666V5.33325Z" fill="white"/>
<path d="M24 38.6665H40M32 30.6665V46.6665" stroke="black" stroke-width="5.33333" stroke-linecap="round" stroke-linejoin="round"/>
</mask>
<g mask="url(#mask0_79_5842)">
<path d="M0 0H64V64H0V0Z" fill="#F24E1E"/>
</g>
</svg>
