<svg width="64" height="64" viewBox="0 0 64 64" fill="none" xmlns="http://www.w3.org/2000/svg">
<path d="M32.0001 33.3333C29.5247 33.3333 27.1508 34.3166 25.4004 36.0669C23.6501 37.8173 22.6667 40.1912 22.6667 42.6666C22.6667 45.1419 23.6501 47.5159 25.4004 49.2663C27.1508 51.0166 29.5247 51.9999 32.0001 51.9999C34.4754 51.9999 36.8494 51.0166 38.5997 49.2663C40.3501 47.5159 41.3334 45.1419 41.3334 42.6666C41.3334 40.1912 40.3501 37.8173 38.5997 36.0669C36.8494 34.3166 34.4754 33.3333 32.0001 33.3333ZM28.0001 42.6666C28.0001 41.6057 28.4215 40.5883 29.1717 39.8382C29.9218 39.088 30.9392 38.6666 32.0001 38.6666C33.0609 38.6666 34.0784 39.088 34.8285 39.8382C35.5787 40.5883 36.0001 41.6057 36.0001 42.6666C36.0001 43.7275 35.5787 44.7449 34.8285 45.495C34.0784 46.2452 33.0609 46.6666 32.0001 46.6666C30.9392 46.6666 29.9218 46.2452 29.1717 45.495C28.4215 44.7449 28.0001 43.7275 28.0001 42.6666Z" fill="#0D5621"/>
<path d="M46.736 13.6427L38.2587 1.75732L7.088 26.6587L5.36 26.64V26.6667H4V58.6667H60V26.6667H57.4347L52.3307 11.736L46.736 13.6427ZM51.8 26.6667H25.0587L44.976 19.8773L49.0347 18.5787L51.8 26.6667ZM41.4667 15.44L20.9067 22.448L37.1893 9.43999L41.4667 15.44ZM9.33333 48.4507V36.8773C10.4591 36.48 11.4817 35.8357 12.3262 34.9918C13.1706 34.1478 13.8154 33.1256 14.2133 32H49.7867C50.1843 33.1261 50.8289 34.1488 51.6734 34.9933C52.5178 35.8377 53.5406 36.4824 54.6667 36.88V48.4533C53.5406 48.8509 52.5178 49.4956 51.6734 50.34C50.8289 51.1845 50.1843 52.2072 49.7867 53.3333H14.2187C13.8192 52.2071 13.1732 51.1844 12.3281 50.3396C11.4829 49.4949 10.4597 48.8496 9.33333 48.4507Z" fill="#0D5621"/>
</svg>
