<svg width="64" height="64" viewBox="0 0 64 64" fill="none" xmlns="http://www.w3.org/2000/svg">
<path d="M16.0001 5.33325C14.5856 5.33325 13.229 5.89515 12.2288 6.89535C11.2287 7.89554 10.6667 9.2521 10.6667 10.6666V53.3333C10.6667 54.7477 11.2287 56.1043 12.2288 57.1045C13.229 58.1047 14.5856 58.6666 16.0001 58.6666H48.0001C49.4146 58.6666 50.7711 58.1047 51.7713 57.1045C52.7715 56.1043 53.3334 54.7477 53.3334 53.3333V10.6666C53.3334 9.2521 52.7715 7.89554 51.7713 6.89535C50.7711 5.89515 49.4146 5.33325 48.0001 5.33325H16.0001ZM32.0001 13.3333C35.5363 13.3333 38.9277 14.738 41.4282 17.2385C43.9287 19.739 45.3334 23.1304 45.3334 26.6666C45.3334 30.2028 43.9287 33.5942 41.4282 36.0947C38.9277 38.5952 35.5363 39.9999 32.0001 39.9999C28.4639 39.9999 25.0725 38.5952 22.572 36.0947C20.0715 33.5942 18.6667 30.2028 18.6667 26.6666C18.6667 23.1304 20.0715 19.739 22.572 17.2385C25.0725 14.738 28.4639 13.3333 32.0001 13.3333ZM32.0001 15.9999C30.9067 17.6533 30.0001 19.4399 29.4401 21.3333H34.5601C33.9874 19.4339 33.1238 17.6348 32.0001 15.9999ZM28.5334 16.5866C26.0801 17.4133 24.0001 19.1199 22.7734 21.3333H26.6667C27.1467 19.6799 27.7334 18.0799 28.5334 16.5866ZM35.4401 16.5866C36.2401 18.0799 36.8534 19.6799 37.3334 21.3333H41.2267C40.0001 19.1199 37.8934 17.4399 35.4401 16.5866ZM21.6801 23.9999C21.4667 24.8533 21.3334 25.7333 21.3334 26.6666C21.3334 27.5999 21.4667 28.4799 21.6801 29.3333H26.1867C26.0801 28.4533 26.0001 27.5733 26.0001 26.6666C26.0001 25.7599 26.0801 24.8799 26.1867 23.9999H21.6801ZM28.8801 23.9999C28.7467 24.8533 28.6667 25.7599 28.6667 26.6666C28.6667 27.5733 28.7467 28.4533 28.8801 29.3333H35.1201C35.2267 28.4533 35.3334 27.5733 35.3334 26.6666C35.3334 25.7599 35.2267 24.8533 35.1201 23.9999H28.8801ZM37.8134 23.9999C37.9201 24.8799 38.0001 25.7599 38.0001 26.6666C38.0001 27.5733 37.9201 28.4533 37.8134 29.3333H42.3201C42.5334 28.4799 42.6667 27.5999 42.6667 26.6666C42.6667 25.7333 42.5334 24.8533 42.3201 23.9999H37.8134ZM22.7734 31.9999C24.0001 34.2133 26.0801 35.8933 28.5334 36.7466C27.7334 35.2533 27.1467 33.6799 26.6667 31.9999H22.7734ZM29.4401 31.9999C30.0001 33.9199 30.9067 35.6799 32.0001 37.3333C33.1201 35.6799 34.0001 33.9199 34.5601 31.9999H29.4401ZM37.3334 31.9999C36.8534 33.6799 36.2401 35.2533 35.4401 36.7466C37.8934 35.8933 40.0001 34.2133 41.2267 31.9999H37.3334ZM18.6667 45.3333H45.3334V50.6666H18.6667V45.3333Z" fill="#0E298B"/>
</svg>
