<svg width="64" height="64" viewBox="0 0 64 64" fill="none" xmlns="http://www.w3.org/2000/svg">
<path d="M6.66675 11.7334L11.7334 6.66675L16.8001 10.4667L21.8667 6.66675L26.9334 10.4667L32.0001 6.66675L37.0667 10.4667L42.1334 6.66675L47.2001 10.4667L52.2668 6.66675L57.3334 11.7334L53.5334 16.8001L57.3334 21.8667L53.5334 26.9334L57.3334 32.0001L53.5334 37.0667L57.3334 42.1334L53.5334 47.2001L57.3334 52.2668L52.2668 57.3334L47.2001 53.5334L42.1334 57.3334L37.0667 53.5334L32.0001 57.3334L26.9334 53.5334L21.8667 57.3334L16.8001 53.5334L11.7334 57.3334L6.66675 52.2668L10.4667 47.2001L6.66675 42.1334L10.4667 37.0667L6.66675 32.0001L10.4667 26.9334L6.66675 21.8667L10.4667 16.8001L6.66675 11.7334Z" stroke="#621150" stroke-width="5.33333" stroke-linecap="round" stroke-linejoin="round"/>
<path d="M32 44C38.6274 44 44 38.6274 44 32C44 25.3726 38.6274 20 32 20C25.3726 20 20 25.3726 20 32C20 38.6274 25.3726 44 32 44Z" stroke="#621150" stroke-width="5.33333" stroke-linecap="round" stroke-linejoin="round"/>
</svg>
