<svg width="64" height="64" viewBox="0 0 64 64" fill="none" xmlns="http://www.w3.org/2000/svg">
<path d="M58.1039 3.94665L59.6772 5.51999C61.8452 7.69065 61.5172 11.5387 58.9386 14.1147L26.4932 46.56L15.9812 50.4053C14.6612 50.8907 13.3759 50.2613 13.1146 49.0053C13.0262 48.5497 13.0678 48.0784 13.2346 47.6453L17.1546 37.0427L49.5092 4.68532C52.0879 2.10932 55.9359 1.77599 58.1039 3.94665ZM25.0772 7.17332C25.4274 7.17332 25.7742 7.24229 26.0977 7.37631C26.4213 7.51032 26.7152 7.70675 26.9628 7.95437C27.2105 8.20199 27.4069 8.49596 27.5409 8.8195C27.6749 9.14303 27.7439 9.48979 27.7439 9.83999C27.7439 10.1902 27.6749 10.5369 27.5409 10.8605C27.4069 11.184 27.2105 11.478 26.9628 11.7256C26.7152 11.9732 26.4213 12.1697 26.0977 12.3037C25.7742 12.4377 25.4274 12.5067 25.0772 12.5067H14.4106C12.9961 12.5067 11.6395 13.0686 10.6393 14.0688C9.63913 15.0689 9.07723 16.4255 9.07723 17.84V49.84C9.07723 51.2545 9.63913 52.611 10.6393 53.6112C11.6395 54.6114 12.9961 55.1733 14.4106 55.1733H46.4106C47.825 55.1733 49.1816 54.6114 50.1818 53.6112C51.182 52.611 51.7439 51.2545 51.7439 49.84V39.1733C51.7439 38.4661 52.0249 37.7878 52.5249 37.2877C53.025 36.7876 53.7033 36.5067 54.4106 36.5067C55.1178 36.5067 55.7961 36.7876 56.2962 37.2877C56.7963 37.7878 57.0772 38.4661 57.0772 39.1733V49.84C57.0772 52.669 55.9534 55.3821 53.953 57.3825C51.9527 59.3828 49.2395 60.5067 46.4106 60.5067H14.4106C11.5816 60.5067 8.86848 59.3828 6.86809 57.3825C4.8677 55.3821 3.7439 52.669 3.7439 49.84V17.84C3.7439 15.011 4.8677 12.2979 6.86809 10.2975C8.86848 8.29713 11.5816 7.17332 14.4106 7.17332H25.0772Z" fill="#1E1C9F"/>
</svg>
